#!OML:ASF F:\VICON\USERDATA\INSTALL\rory3\rory3.ASF
:FULLY-SPECIFIED
:DEGREES
1027
root 2.83818 16.4483 -22.0044 24.9153 0.663706 -367.961
lowerback -19.4299 2.64517 7.91279
upperback -20.4984 2.63023 -0.19238
thorax -12.0697 0.264937 -4.3684
lowerneck -16.3441 4.23606 7.40773
upperneck -37.7426 4.45138 -3.49493
head -9.47125 1.4331 -2.67286
rclavicle 3.37934e-015 -1.86858e-014
rhumerus -87.1014 -33.3327 59.9034
rradius 13.6161
rwrist 93.5881
rhand 22.2877 -3.40275
rfingers 7.12502
rthumb 46.66 -26.2173
lclavicle 3.37934e-015 -1.86858e-014
lhumerus -68.6556 11.6598 -18.0392
lradius 17.0712
lwrist -52.9725
lhand 13.0529 27.9219
lfingers 7.12502
lthumb 38.0158 53.7168
rfemur -26.4964 6.24227 37.8146
rtibia 24.0853
rfoot -32.497 -28.2255
rtoes 30.8353
lfemur 103.199 170.496 159.578
ltibia 38.9652
lfoot 13.2736 41.3252
ltoes 6.44656
1028
root 2.83796 16.4524 -22.0089 24.8539 0.743177 -367.857
lowerback -19.3242 2.57414 7.90787
upperback -20.3937 2.5395 -0.241046
thorax -11.9974 0.219722 -4.43071
lowerneck -15.8572 4.33008 8.20526
upperneck -37.6691 4.3333 -4.352
head -9.46525 1.3394 -3.12846
rclavicle 1.45113e-014 1.70955e-014
rhumerus -85.7392 -33.5517 57.5002
rradius 13.5691
rwrist 91.9323
rhand 22.8646 -3.62545
rfingers 7.12502
rthumb 47.1937 -26.2059
lclavicle 1.45113e-014 1.70955e-014
lhumerus -68.2685 11.192 -16.8632
lradius 17.2368
lwrist -52.0194
lhand 13.4054 27.7446
lfingers 7.12502
lthumb 38.3486 53.4482
rfemur -26.5314 6.5481 37.6501
rtibia 24.2083
rfoot -32.7213 -28.5627
rtoes 31.0964
lfemur 103.301 170.64 159.6
ltibia 38.9625
lfoot 12.1279 41.5504
ltoes 8.40596
1029
root 2.84047 16.4607 -22.0086 24.7867 0.707022 -367.608
lowerback -19.3595 2.54537 7.83158
upperback -20.134 2.48409 -0.380999
thorax -11.6358 0.208971 -4.54516
lowerneck -15.268 4.43682 9.35651
upperneck -38.1082 4.11089 -5.67634
head -9.66493 1.17591 -3.84002
rclavicle 5.1684e-015 -2.06736e-014
rhumerus -83.6957 -33.541 53.4501
rradius 13.444
rwrist 88.8336
rhand 23.1299 -4.12706
rfingers 7.12502
rthumb 47.4389 -26.5975
lclavicle 5.1684e-015 -2.06736e-014
lhumerus -68.031 11.6901 -17.0058
lradius 17.2236
lwrist -52.4822
lhand 13.5094 27.3542
lfingers 7.12502
lthumb 38.4468 53.0305
rfemur -26.5886 6.76529 37.3151
rtibia 24.444
rfoot -32.9387 -28.86
rtoes 31.1352
lfemur 103.486 170.765 159.428
ltibia 38.9064
lfoot 11.3327 41.747
ltoes 10.1154
1030
root 2.83917 16.4624 -22.0107 24.8517 0.695816 -367.499
lowerback -19.4489 2.50194 7.8542
upperback -19.9153 2.40127 -0.412583
thorax -11.3123 0.178973 -4.59461
lowerneck -14.767 4.54719 10.4201
upperneck -38.3447 3.90065 -6.95738
head -9.77371 1.03073 -4.51796
rclavicle 1.27222e-014 -9.54166e-015
rhumerus -81.4588 -33.4946 49.2169
rradius 13.3547
rwrist 85.6247
rhand 23.3898 -4.25505
rfingers 7.12502
rthumb 47.6789 -26.6163
lclavicle 1.27222e-014 -9.54166e-015
lhumerus -67.9433 12.1352 -17.1189
lradius 17.2209
lwrist -53.2235
lhand 13.4472 27.0783
lfingers 7.12502
lthumb 38.3881 52.7709
rfemur -26.7015 7.16959 37.1047
rtibia 24.5035
rfoot -33.2953 -29.0911
rtoes 31.3182
lfemur 103.491 170.83 159.394
ltibia 38.9268
lfoot 9.04066 42.1873
ltoes 14.0266
1031
root 2.83993 16.4533 -22.0127 24.9397 0.626046 -367.478
lowerback -19.4548 2.50005 7.9388
upperback -19.8409 2.38131 -0.434228
thorax -11.2156 0.160545 -4.66617
lowerneck -13.8869 4.55837 11.3645
upperneck -38.4384 3.66814 -8.04708
head -9.89598 0.887567 -5.11345
rclavicle 8.74653e-015 -1.82882e-014
rhumerus -80.2109 -33.6291 46.9621
rradius 13.3915
rwrist 84.2183
rhand 23.4353 -4.11908
rfingers 7.12502
rthumb 47.7208 -26.4611
lclavicle 8.74653e-015 -1.82882e-014
lhumerus -67.6472 11.8345 -16.2066
lradius 17.2771
lwrist -53.3043
lhand 13.3991 26.8365
lfingers 7.12502
lthumb 38.3427 52.5416
rfemur -26.8954 7.39082 37.0178
rtibia 24.669
rfoot -33.4038 -29.2189
rtoes 31.1198
lfemur 103.364 170.828 159.402
ltibia 38.8133
lfoot 10.9012 42.0167
ltoes 10.8247
1032
root 2.84077 16.455 -22.0173 24.969 0.608412 -367.584
lowerback -19.4056 2.49655 8.1154
upperback -19.7463 2.35846 -0.373858
thorax -11.1268 0.137183 -4.69844
lowerneck -13.5034 4.50174 11.6885
upperneck -37.9867 3.52885 -8.37233
head -9.76068 0.821635 -5.27438
rclavicle 1.53064e-014 7.55382e-015
rhumerus -79.1898 -33.8867 45.1296
rradius 13.4844
rwrist 83.27
rhand 23.069 -4.06748
rfingers 7.12502
rthumb 47.3826 -26.5633
lclavicle 1.53064e-014 7.55382e-015
lhumerus -67.3175 11.0964 -14.4543
lradius 17.5318
lwrist -52.7167
lhand 11.5966 28.6053
lfingers 7.12502
lthumb 36.6391 54.7622
rfemur -27.0134 7.49644 37.1053
rtibia 24.7985
rfoot -33.3135 -29.364
rtoes 30.9753
lfemur 103.343 170.798 159.564
ltibia 38.7576
lfoot 11.1014 41.9762
ltoes 10.6216
1033
root 2.84297 16.4396 -22.0176 25.0194 0.530434 -367.631
lowerback -19.3411 2.47974 8.2855
upperback -19.5572 2.31368 -0.32081
thorax -10.9264 0.109654 -4.73643
lowerneck -14.2587 4.4733 11.3638
upperneck -36.8464 3.53888 -7.86959
head -9.21598 0.849333 -4.95086
rclavicle -4.17448e-015 1.35174e-014
rhumerus -78.5837 -34.5199 43.7136
rradius 13.6201
rwrist 82.9316
rhand 22.9055 -3.97303
rfingers 7.12502
rthumb 47.2316 -26.5366
lclavicle -4.17448e-015 1.35174e-014
lhumerus -67.0821 10.5053 -12.8138
lradius 17.75
lwrist -52.1167
lhand 11.5709 28.9095
lfingers 7.12502
lthumb 36.6147 55.0726
rfemur -27.1615 7.60805 37.1205
rtibia 24.9969
rfoot -33.4742 -29.3582
rtoes 31.1211
lfemur 103.293 170.788 159.617
ltibia 38.5659
lfoot 13.171 41.6849
ltoes 7.63825
1034
root 2.84321 16.4373 -22.0237 25.0006 0.442606 -367.574
lowerback -19.1219 2.45282 8.26818
upperback -19.393 2.29316 -0.311875
thorax -10.8315 0.109771 -4.72191
lowerneck -15.4191 4.40987 10.8739
upperneck -35.1929 3.54447 -7.07489
head -8.4471 0.885018 -4.47376
rclavicle 9.74045e-015 3.97569e-016
rhumerus -76.6809 -34.3465 39.9413
rradius 13.7666
rwrist 80.459
rhand 22.969 -3.11939
rfingers 7.12502
rthumb 47.2902 -25.6567
lclavicle 9.74045e-015 3.97569e-016
lhumerus -66.6806 9.78477 -10.6998
lradius 18.058
lwrist -51.111
lhand 12.3599 28.8562
lfingers 7.12502
lthumb 37.3611 54.8265
rfemur -27.2252 7.93603 36.9627
rtibia 25.1004
rfoot -33.6503 -29.5077
rtoes 31.2352
lfemur 103.324 170.776 159.601
ltibia 38.478
lfoot 14.0024 41.6396
ltoes 6.16036
1035
root 2.84438 16.4409 -22.0324 24.9371 0.231673 -367.353
lowerback -19.0264 2.44748 8.00797
upperback -19.214 2.31192 -0.355114
thorax -10.641 0.160128 -4.62285
lowerneck -16.4644 4.26789 10.2549
upperneck -33.3734 3.50888 -6.11973
head -7.67037 0.913222 -3.93647
rclavicle 2.46493e-014 -2.06736e-014
rhumerus -72.8785 -32.7115 32.6774
rradius 13.9208
rwrist 74.7845
rhand 22.7086 -3.44662
rfingers 7.12502
rthumb 47.0494 -26.091
lclavicle 2.46493e-014 -2.06736e-014
lhumerus -66.2548 9.29631 -8.75748
lradius 18.3441
lwrist -50.3593
lhand 12.7449 29.0715
lfingers 7.12502
lthumb 37.7249 54.9451
rfemur -27.2653 8.45319 36.5542
rtibia 25.233
rfoot -33.892 -29.8467
rtoes 31.411
lfemur 103.441 170.755 159.371
ltibia 38.407
lfoot 14.1987 41.8281
ltoes 5.75804
1036
root 2.84958 16.4463 -22.0349 24.7778 -0.102991 -367.321
lowerback -19.0074 2.53977 8.0913
upperback -18.7365 2.3972 -0.379816
thorax -10.0284 0.228566 -4.67904
lowerneck -18.5201 4.21387 9.63464
upperneck -31.2924 3.46138 -5.22523
head -6.69038 0.935664 -3.41821
rclavicle 6.95746e-015 -2.14687e-014
rhumerus -69.7138 -31.2751 26.0044
rradius 14.1955
rwrist 69.4983
rhand 22.2541 -3.83242
rfingers 7.12502
rthumb 46.6289 -26.6604
lclavicle 6.95746e-015 -2.14687e-014
lhumerus -66.0702 9.80873 -7.80507
lradius 18.4974
lwrist -50.7941
lhand 13.1218 28.9566
lfingers 7.12502
lthumb 38.0809 54.7338
rfemur -26.9513 8.87079 36.3458
rtibia 25.0335
rfoot -34.0042 -29.8911
rtoes 31.6378
lfemur 103.574 170.535 159.276
ltibia 38.5346
lfoot 14.3965 41.7427
ltoes 5.29577
